<svg xmlns="http://www.w3.org/2000/svg" height="20" width="20"><path d="m12.729 10.604-.75-.75q.083-.896-.531-1.416-.615-.521-1.302-.438l-.75-.75q.125-.021.281-.031.156-.011.323-.011 1.167 0 1.979.813.813.812.813 1.979 0 .167-.011.333-.01.167-.052.271Zm2.729 2.708-.5-.479q.75-.583 1.365-1.281T17.354 10q-1.021-2.104-3.01-3.302Q12.354 5.5 10 5.5q-.542 0-1.062.062-.521.063-1.021.209l-.563-.563q.667-.229 1.344-.302.677-.073 1.302-.073 2.542 0 4.802 1.365 2.26 1.364 3.302 3.802-.437.958-1.094 1.76-.656.802-1.552 1.552Zm.48 3.605-2.459-2.5q-.604.312-1.51.531-.907.219-1.969.219-2.562 0-4.802-1.365Q2.958 12.438 1.896 10q.5-1.188 1.385-2.188.886-1 1.927-1.687L3.083 4.042l.5-.48 12.834 12.855ZM5.688 6.625q-.834.563-1.709 1.448-.875.885-1.333 1.927 1.021 2.104 3.01 3.302Q7.646 14.5 10 14.5q.854 0 1.708-.156t1.334-.365l-1.563-1.521q-.25.146-.687.24-.438.094-.792.094-1.167 0-1.979-.813-.813-.812-.813-1.979 0-.333.115-.76.115-.428.219-.719ZM11 9Zm-1.208 1.625Z" fill="#eeeeee"/></svg>